<svg xmlns="http://www.w3.org/2000/svg" viewBox="0 0 512 512"><defs><linearGradient id="g" x1="0" y1="0" x2="1" y2="1"><stop offset="0" stop-color="#16396A"/><stop offset="1" stop-color="#0B1F3B"/></linearGradient><linearGradient id="a" gradientUnits="userSpaceOnUse" x1="0" y1="120" x2="0" y2="420"><stop offset="0" stop-color="#F0D48C"/><stop offset="1" stop-color="#B38B36"/></linearGradient></defs><rect width="512" height="512" rx="0" fill="url(#g)"/><rect x="96" y="336" width="320" height="68" rx="10" fill="url(#a)"/><rect x="130" y="258" width="252" height="68" rx="10" fill="url(#a)" opacity=".92"/><path d="M120 352 V 388 M 392 352 V 388 M 154 274 V 310 M 358 274 V 310" stroke="#0B1F3B" stroke-width="7" stroke-linecap="round"/><path d="M136 370 H 376" stroke="#0B1F3B" stroke-width="3" opacity=".35"/><path d="M170 292 H 342" stroke="#0B1F3B" stroke-width="3" opacity=".35"/><path d="M256 214 C 222 190, 176 184, 132 190 V 244 C 176 238, 222 244, 256 262 C 290 244, 336 238, 380 244 V 190 C 336 184, 290 190, 256 214 Z" fill="url(#a)"/><path d="M256 214 V 262" stroke="#0B1F3B" stroke-width="6"/><path d="M160 206 C 190 204, 222 210, 244 222 M 352 206 C 322 204, 290 210, 268 222" fill="none" stroke="#0B1F3B" stroke-width="3" opacity=".45"/><polygon points="256,110 274,136 256,162 238,136" fill="#F6E3A8"/></svg>